<svg xmlns="http://www.w3.org/2000/svg" width="1200" height="630" viewBox="0 0 1200 630">
  <!-- Background -->
  <rect width="1200" height="630" fill="#0a0a0f"/>

  <!-- Subtle grid pattern -->
  <defs>
    <pattern id="grid" width="60" height="60" patternUnits="userSpaceOnUse">
      <path d="M 60 0 L 0 0 0 60" fill="none" stroke="#1e1e2e" stroke-width="1"/>
    </pattern>
  </defs>
  <rect width="1200" height="630" fill="url(#grid)"/>

  <!-- Left accent bar -->
  <rect x="80" y="160" width="4" height="310" fill="#3b82f6" rx="2"/>

  <!-- Name -->
  <text
    x="112"
    y="265"
    font-family="system-ui, -apple-system, sans-serif"
    font-size="72"
    font-weight="700"
    fill="#e2e8f0"
    letter-spacing="-1"
  >Lucas Santana</text>

  <!-- Role -->
  <text
    x="112"
    y="340"
    font-family="system-ui, -apple-system, sans-serif"
    font-size="32"
    font-weight="500"
    fill="#3b82f6"
    letter-spacing="0"
  >Backend Developer</text>

  <!-- Stack chips -->
  <!-- .NET/C# chip -->
  <rect x="112" y="380" width="148" height="42" rx="6" fill="#1e1e2e"/>
  <text x="186" y="406" font-family="monospace, monospace" font-size="18" fill="#3b82f6" text-anchor="middle">.NET / C#</text>

  <!-- TypeScript chip -->
  <rect x="272" y="380" width="230" height="42" rx="6" fill="#1e1e2e"/>
  <text x="387" y="406" font-family="monospace, monospace" font-size="18" fill="#3b82f6" text-anchor="middle">TypeScript / NestJS</text>

  <!-- Java chip -->
  <rect x="514" y="380" width="230" height="42" rx="6" fill="#1e1e2e"/>
  <text x="629" y="406" font-family="monospace, monospace" font-size="18" fill="#3b82f6" text-anchor="middle">Java / Spring Boot</text>

  <!-- Divider -->
  <line x1="80" y1="450" x2="1120" y2="450" stroke="#1e1e2e" stroke-width="1"/>

  <!-- URL -->
  <text
    x="112"
    y="500"
    font-family="monospace, monospace"
    font-size="22"
    fill="#475569"
  >lucas01sx.github.io</text>

  <!-- Decorative dots top right -->
  <circle cx="1000" cy="180" r="3" fill="#1e1e2e"/>
  <circle cx="1040" cy="180" r="3" fill="#1e1e2e"/>
  <circle cx="1080" cy="180" r="3" fill="#3b82f6"/>
  <circle cx="1120" cy="180" r="3" fill="#1e1e2e"/>
  <circle cx="1000" cy="220" r="3" fill="#1e1e2e"/>
  <circle cx="1040" cy="220" r="3" fill="#3b82f6"/>
  <circle cx="1080" cy="220" r="3" fill="#1e1e2e"/>
  <circle cx="1120" cy="220" r="3" fill="#1e1e2e"/>
  <circle cx="1000" cy="260" r="3" fill="#3b82f6"/>
  <circle cx="1040" cy="260" r="3" fill="#1e1e2e"/>
  <circle cx="1080" cy="260" r="3" fill="#1e1e2e"/>
  <circle cx="1120" cy="260" r="3" fill="#3b82f6"/>
  <circle cx="1000" cy="300" r="3" fill="#1e1e2e"/>
  <circle cx="1040" cy="300" r="3" fill="#1e1e2e"/>
  <circle cx="1080" cy="300" r="3" fill="#3b82f6"/>
  <circle cx="1120" cy="300" r="3" fill="#1e1e2e"/>
</svg>
